<svg id="Ebene_1" data-name="Ebene 1" xmlns="http://www.w3.org/2000/svg" viewBox="0 0 561.67 394.17"><defs><style>.cls-1{fill:none;}.cls-2{fill:#31a2c7;}.cls-3{fill:#942738;}</style></defs><path class="cls-1" d="M524.41,369.4a12,12,0,0,1,2.57,1.83l6-7.33c1.33-1.63,2.61-3.31,3.86-5h-8.38c-.24.64-.47,1.29-.72,1.94Z" transform="translate(-140 -101.28)"/><polygon class="cls-1" points="384.83 257.61 380.16 257.61 381.49 266.62 384.83 257.61"/><path class="cls-1" d="M420,394.09c-5.73,3-11.59,5.81-17.41,8.43l-11.05,5,12.1.88c5.84.42,11.66.64,17.33.64h1.64c33.47-.24,63.05-8.15,85.55-22.88l.44-.29a11.88,11.88,0,0,1,8.86-17.71l-.05-.87c-.17-2.77-.45-5.57-.81-8.38H474.94l-1.07.85A349.69,349.69,0,0,1,420,394.09Z" transform="translate(-140 -101.28)"/><path class="cls-1" d="M290.38,152.58l.54.08a11.9,11.9,0,0,1,15.65-6.52l.54-.74a122.45,122.45,0,0,1,7.73-9.55l8.38-9.13L312.48,130a173.78,173.78,0,0,0-35.84,15.38l-8.59,4.89,9.85.84C282,151.42,286.17,151.93,290.38,152.58Z" transform="translate(-140 -101.28)"/><path class="cls-1" d="M324.17,412.52l.13.22a12,12,0,0,1,4.58-.91A11.89,11.89,0,0,1,340.17,420l.8-.18c8.59-1.94,17.38-4.37,26.14-7.22l11-3.59-11.35-2.35A325.17,325.17,0,0,1,319.7,393.1l-2-.63-2.88,3.07,1,1.93C318.47,402.62,321.28,407.68,324.17,412.52Z" transform="translate(-140 -101.28)"/><path class="cls-1" d="M317.43,138.15c-2.48,2.76-4.86,5.69-7.09,8.71l-.81,1.09a11.84,11.84,0,0,1,4.28,9.12,4.52,4.52,0,0,1,0,.52l.76.21a282.47,282.47,0,0,1,50.3,19.36q3.4,1.68,6.76,3.44l1.83,1,7.89-.65,8.64.8,1.84-.9c26.17-12.9,51.25-18.58,74.54-16.87l10.24.75-8.15-6.26a173.53,173.53,0,0,0-89.43-35,176,176,0,0,0-33.1,0l-1.83.18-1.48,3.51,0,.08c-3.82,4.83-9.71,5.48-13.93,3l-2-1.17L325,130.51C322.36,132.91,319.82,135.48,317.43,138.15Z" transform="translate(-140 -101.28)"/><path class="cls-1" d="M238.53,362.57l.08-.24a11.87,11.87,0,0,1-4.18-16.16l-.84-.67c-6.08-4.81-11.88-9.84-17.24-15a197.07,197.07,0,0,1-21.58-24.15l-4.88-6.52c-.39.17-.79.32-1.21.46l.56,8.12a172.54,172.54,0,0,0,35.7,93.69l4.71,6.1.78-7.67a189.14,189.14,0,0,1,6.65-33.24Q237.79,364.94,238.53,362.57Z" transform="translate(-140 -101.28)"/><path class="cls-1" d="M336.41,437l-1.35-1.81-.69-.92a11.88,11.88,0,0,1-16.74-6.75l-.6.08c-1.43.18-2.87.35-4.32.5-20.64,2.2-39.79,1.4-56.92-2.38l-12.69-2.79,10.09,8.18a173,173,0,0,0,93.12,38c4.29.41,8.68.66,13.05.74l8.31.17-6.2-5.53A193.09,193.09,0,0,1,336.41,437Z" transform="translate(-140 -101.28)"/><path class="cls-1" d="M422.65,412.48a248.52,248.52,0,0,1-25.59-1.18l-2-.19-1,1.72a10.42,10.42,0,0,1-15.66,2.79l-2.24-2.45-1.91.67a302.74,302.74,0,0,1-32.68,9.39l-.87.2a2.44,2.44,0,0,1,0,.27,11.84,11.84,0,0,1-3.57,8.49l2,2.69a184.42,184.42,0,0,0,28.76,30.53l6.49,4.51,7.83-1.09,1.77-.32A174.78,174.78,0,0,0,501.4,400.82l8-10.5-11.79,5.9C476.44,406.81,451.23,412.28,422.65,412.48Z" transform="translate(-140 -101.28)"/><path class="cls-1" d="M243.77,418.79c14,4.68,29.69,7,46.76,7a205.83,205.83,0,0,0,21.81-1.2c1.37-.15,2.74-.3,4.11-.48l.57-.07c0-.12,0-.25,0-.37a11.84,11.84,0,0,1,4.32-9.16l-.13-.23c-2.95-4.95-5.83-10.14-8.55-15.43l-.94-1.83-2,.17a9.1,9.1,0,0,1-.91,0A10.29,10.29,0,0,1,298.47,387l.09-2.52-1.88-.86a321.57,321.57,0,0,1-42.86-23.54l-.19-.12a11.89,11.89,0,0,1-11.81,3.71l-.15.47c-.43,1.38-.85,2.77-1.25,4.16a181.7,181.7,0,0,0-6.76,35.07l-.19,2.21,8.2,3.56v9Z" transform="translate(-140 -101.28)"/><path class="cls-2" d="M548.65,236.68h3.46a86.78,86.78,0,0,0-.61-12.31c-.09-.73-.63-2.06-2-1.9a1.51,1.51,0,0,0-1.11.66,2.41,2.41,0,0,0-.35,1.66A83.68,83.68,0,0,1,548.65,236.68Z" transform="translate(-140 -101.28)"/><path class="cls-2" d="M171.05,227.69a1.66,1.66,0,0,0-1.21.35,2.17,2.17,0,0,0-.68,1.59c-.19,2.33-.27,4.69-.28,7.05h3.47c0-2.27.09-4.54.27-6.78C172.77,228,171.57,227.73,171.05,227.69Z" transform="translate(-140 -101.28)"/><path class="cls-2" d="M533,363.9l-6,7.33a12,12,0,0,0-2.57-1.83l3.36-8.57c.25-.65.48-1.3.72-1.94h-3.66l-3.34,9-1.33-9h-3.55c.36,2.81.64,5.61.81,8.38l.05.87a11.88,11.88,0,0,0-8.86,17.71l-.44.29c-22.5,14.73-52.08,22.64-85.55,22.88H421c-5.67,0-11.49-.22-17.33-.64l-12.1-.88,11.05-5c5.82-2.62,11.68-5.46,17.41-8.43a349.69,349.69,0,0,0,53.86-34.35l1.07-.85h-5.69A345.77,345.77,0,0,1,418.4,391c-7.3,3.79-14.75,7.33-22.16,10.53l-2,.87-2.46-2.68a.63.63,0,0,0-.12-.11,10.45,10.45,0,0,0-15.52,3.18l-1.07,1.95-3.91-.74a321.51,321.51,0,0,1-50.1-14.11l-2-.74V387a10.3,10.3,0,0,0-10.29-10.31l-2.6.08-.81-2a332.79,332.79,0,0,1-15.44-46.91c-2.48-10-4.48-20-6-30h-3.51c1.54,10.21,3.59,20.58,6.14,30.81a335.63,335.63,0,0,0,15.67,47.56l.79,1.9-3,3-2-.78a318.7,318.7,0,0,1-42.14-23.14l-.34-.22a11.87,11.87,0,0,0-5.5-15.52l.46-1.08a296.29,296.29,0,0,1,13.16-26.77c2.91-5.26,6-10.54,9.31-15.72h-4.1c-2.88,4.64-5.64,9.35-8.25,14.05a300.1,300.1,0,0,0-13.51,27.56l-.38.88a12,12,0,0,0-2-.17,11.84,11.84,0,0,0-8.1,3.2l-1-.76C229.69,338,224,333.06,218.75,328a186.57,186.57,0,0,1-25.29-29.45L193,298H177.31a11.82,11.82,0,0,0,7.78,2.92h.31l0,.89a175.72,175.72,0,0,0,33.13,97.6l11.52,16-15.85-11.77a100.06,100.06,0,0,1-30.69-37.88,1.93,1.93,0,0,0-2.48-1.18,1.51,1.51,0,0,0-.85,1,2.46,2.46,0,0,0,.2,1.68c8.75,18.38,21.46,33,37.77,43.32.52.33,1,.65,1.55,1l1.71,1.05-.26,2c-.42,3.19.63,6.8,3.91,10.07a.41.41,0,0,0,.11.07l4.89,1.59.21,2a96.19,96.19,0,0,0,12.1,38.7,1.93,1.93,0,0,0,2.57,1,1.48,1.48,0,0,0,.77-1,2.47,2.47,0,0,0-.33-1.66,92.55,92.55,0,0,1-11.61-36.84l-.24-2.22,2.76-1.24,2.71-1.77,1.76,1.67A175.66,175.66,0,0,0,346,472.48a177.62,177.62,0,0,0,18.17.78l2.34,0,6-.37,5.14,2.27,6.23,4.38.08.08c7.16,5.47,14.06,10.19,33.76,14.31a92.22,92.22,0,0,0,13.61,1.54c1.89.07,2.14-1.13,2.16-1.65s-.14-1.74-2-1.81a88.31,88.31,0,0,1-13.1-1.48c-10.41-2-22.36-5.94-32.29-13.43L380,472.7l-.75-.68,2.18-.08,9.37-.89a178,178,0,0,0,118.9-75.84l3.36-5a11.59,11.59,0,0,0,3.48,1.31l-1.28,6a113.53,113.53,0,0,1-16.49,38.9,2.21,2.21,0,0,0-.45,1.68,1.71,1.71,0,0,0,.74,1,1.64,1.64,0,0,0,1.23.28,2.18,2.18,0,0,0,1.38-1.07,115.75,115.75,0,0,0,18.09-46.11l.08-.51a11.87,11.87,0,0,0,9.12-18.15l.65-.67a114.8,114.8,0,0,0,11.53-14h-4.25C535.62,360.59,534.34,362.27,533,363.9Zm-215.3,28.57,2,.63a325.17,325.17,0,0,0,47.08,13.57L378.13,409l-11,3.59c-8.76,2.85-17.55,5.28-26.14,7.22l-.8.18a11.89,11.89,0,0,0-11.29-8.18,12,12,0,0,0-4.58.91l-.13-.22c-2.89-4.84-5.7-9.9-8.35-15l-1-1.93Zm-88.06,15.76-4.71-6.1a172.54,172.54,0,0,1-35.7-93.69l-.56-8.12c.42-.14.82-.29,1.21-.46l4.88,6.52a197.07,197.07,0,0,0,21.58,24.15c5.36,5.13,11.16,10.16,17.24,15l.84.67a11.87,11.87,0,0,0,4.18,16.16l-.08.24q-.75,2.37-1.45,4.75a189.14,189.14,0,0,0-6.65,33.24Zm3.82-2.66.19-2.21a181.7,181.7,0,0,1,6.76-35.07c.4-1.39.82-2.78,1.25-4.16l.15-.47A11.89,11.89,0,0,0,253.63,360l.19.12a321.57,321.57,0,0,0,42.86,23.54l1.88.86-.09,2.52a10.29,10.29,0,0,0,10.28,10.27,9.1,9.1,0,0,0,.91,0l2-.17.94,1.83c2.72,5.29,5.6,10.48,8.55,15.43l.13.23A11.84,11.84,0,0,0,317,423.7c0,.12,0,.25,0,.37l-.57.07c-1.37.18-2.74.33-4.11.48a205.83,205.83,0,0,1-21.81,1.2c-17.07,0-32.73-2.35-46.76-7l-2.1-.7v-9Zm125.89,64.2c-4.37-.08-8.76-.33-13.05-.74a173,173,0,0,1-93.12-38l-10.09-8.18,12.69,2.79c17.13,3.78,36.28,4.58,56.92,2.38,1.45-.15,2.89-.32,4.32-.5l.6-.08a11.88,11.88,0,0,0,16.74,6.75l.69.92,1.35,1.81a193.09,193.09,0,0,0,25.06,27.45l6.2,5.53Zm142-68.95A174.78,174.78,0,0,1,384,468.51l-1.77.32-7.83,1.09-6.49-4.51a184.42,184.42,0,0,1-28.76-30.53l-2-2.69a11.84,11.84,0,0,0,3.57-8.49,2.44,2.44,0,0,0,0-.27l.87-.2a302.74,302.74,0,0,0,32.68-9.39l1.91-.67,2.24,2.45a10.42,10.42,0,0,0,15.66-2.79l1-1.72,2,.19a248.52,248.52,0,0,0,25.59,1.18c28.58-.2,53.79-5.67,74.92-16.26l11.79-5.9Z" transform="translate(-140 -101.28)"/><path class="cls-2" d="M195.61,236.68h3.69a172.63,172.63,0,0,1,52.61-74.26l1.46-1.21,1.73.76c3.75,1.64,8.2,1,12.41-2.26a.19.19,0,0,0,.08-.11l2.08-5.58,2.25.11a175.8,175.8,0,0,1,17.5,1.8l.7.11c0,.34-.05.68-.05,1a11.84,11.84,0,0,0,4.55,9.34l0,.09c-7.88,16.45-13.19,35.41-15.79,56.35-.56,4.52-1,9.14-1.28,13.83H281c.3-4.53.71-9,1.26-13.41,2.51-20.31,7.63-38.71,15.19-54.68l.21-.45a12,12,0,0,0,4.3.8,11.86,11.86,0,0,0,11.2-7.94l.86.23a280.45,280.45,0,0,1,49.31,19q3.27,1.62,6.51,3.31l1.91,1-.28,2.14a10.42,10.42,0,0,0-.1,1.38,10.19,10.19,0,0,0,.17,1.82l.35,2L370.14,193a302.55,302.55,0,0,0-53.2,43.65h4.87a297.65,297.65,0,0,1,50-40.63l1.82-1.16,8.52-.69,7.53.62,1.83,1.13c8.6,5.34,17.11,11.15,25.3,17.29a339.31,339.31,0,0,1,28,23.44h5a340.83,340.83,0,0,0-31-26.2c-8.32-6.24-17-12.15-25.71-17.57l-1.75-1.08.34-2a9.78,9.78,0,0,0,.14-1.71,9.39,9.39,0,0,0-.07-1.19l-.23-2.15,1.93-1c28.9-14.2,56.19-19.39,81.12-15.42l1.65.26c0,.27,0,.54,0,.82a11.87,11.87,0,0,0,16,11.13A173.61,173.61,0,0,1,526,236.68h3.69a177.29,177.29,0,0,0-32-55.22l-2.24-2.63a11.72,11.72,0,0,0,3.06-3.51l2.85,1.37a105.4,105.4,0,0,1,23.9,16,1.93,1.93,0,0,0,2.75.1,1.52,1.52,0,0,0,.4-1.11,2.38,2.38,0,0,0-.85-1.58,107.36,107.36,0,0,0-27.81-17.93,12,12,0,0,0,.31-2.7,11.86,11.86,0,0,0-21.35-7.13L477.18,161a176.4,176.4,0,0,0-97.84-41.1,178.81,178.81,0,0,0-28.71-.39l-14.76,1L349,113.74a121.48,121.48,0,0,1,23.07-9,2.19,2.19,0,0,0,1.44-1,1.8,1.8,0,0,0-.63-2.27,2.2,2.2,0,0,0-1.74-.09A122.86,122.86,0,0,0,343.07,113l-1.7,1-1.59-1.12c-4.59-3.22-11.33-2.43-16.11,3.67l-.13,6.91-2.31.55a177,177,0,0,0-51.37,21.33l-2,1.21-2.84-2.6a.71.71,0,0,0-.18-.12c-6.48-3.65-13.51-.42-15.44,5.59l-.6,1.86-1.94.25A102.69,102.69,0,0,0,208.28,164a86.65,86.65,0,0,0-10.59,7.17,2.39,2.39,0,0,0-.92,1.42,1.46,1.46,0,0,0,.33,1.24,1.92,1.92,0,0,0,2.74,0A83.75,83.75,0,0,1,210,167a99.06,99.06,0,0,1,36.41-11.93L257,153.66l-8.16,6.82A176.29,176.29,0,0,0,195.61,236.68ZM325,130.51l1.68-1.55,2,1.17c4.22,2.5,10.11,1.85,13.93-3l0-.08,1.48-3.51,1.83-.18a176,176,0,0,1,33.1,0,173.53,173.53,0,0,1,89.43,35l8.15,6.26-10.24-.75c-23.29-1.71-48.37,4-74.54,16.87l-1.84.9-8.64-.8-7.89.65-1.83-1q-3.36-1.75-6.76-3.44a282.47,282.47,0,0,0-50.3-19.36l-.76-.21a4.52,4.52,0,0,0,0-.52,11.84,11.84,0,0,0-4.28-9.12l.81-1.09c2.23-3,4.61-6,7.09-8.71S322.36,132.91,325,130.51Zm-48.34,14.83A173.78,173.78,0,0,1,312.48,130l10.74-3.24-8.38,9.13a122.45,122.45,0,0,0-7.73,9.55l-.54.74a11.9,11.9,0,0,0-15.65,6.52l-.54-.08c-4.21-.65-8.41-1.16-12.48-1.51l-9.85-.84Z" transform="translate(-140 -101.28)"/><path class="cls-3" d="M308.84,398.78A11.87,11.87,0,1,0,297,386.91a11.87,11.87,0,0,0,11.87,11.87Z" transform="translate(-140 -101.28)"/><path class="cls-3" d="M232.07,427.74a11.87,11.87,0,1,0-11.87-11.87,11.87,11.87,0,0,0,11.87,11.87Z" transform="translate(-140 -101.28)"/><path class="cls-3" d="M258.75,164.9A11.87,11.87,0,1,0,246.88,153a11.87,11.87,0,0,0,11.87,11.87Z" transform="translate(-140 -101.28)"/><path class="cls-3" d="M385.46,419.57a11.87,11.87,0,1,0-11.87-11.87,11.86,11.86,0,0,0,11.87,11.87Z" transform="translate(-140 -101.28)"/><path class="cls-3" d="M381.58,200.09a11.87,11.87,0,1,0-11.87-11.87,11.86,11.86,0,0,0,11.87,11.87Z" transform="translate(-140 -101.28)"/><path class="cls-3" d="M333.26,132.91A11.87,11.87,0,1,0,321.39,121a11.88,11.88,0,0,0,11.87,11.87Z" transform="translate(-140 -101.28)"/><path class="cls-3" d="M375.94,482.71a11.87,11.87,0,1,0-11.87-11.87,11.86,11.86,0,0,0,11.87,11.87Z" transform="translate(-140 -101.28)"/><path class="cls-3" d="M692.32,297.62H598.26a10.18,10.18,0,0,0,5.49-9V246a10.18,10.18,0,0,0-10.17-10.17H150.18A10.19,10.19,0,0,0,140,246v42.56a10.2,10.2,0,0,0,10.18,10.18H341.83A9.34,9.34,0,0,0,337,307v42.56a9.36,9.36,0,0,0,9.35,9.36h346a9.35,9.35,0,0,0,9.35-9.36V307A9.35,9.35,0,0,0,692.32,297.62ZM371.41,333.19h-6v17h-7.86V305.27h13.12c9.87,0,15.07,4.09,15.07,13.63C385.7,327.74,382.12,333.19,371.41,333.19Zm45.45,17H394.59V305.27h7.79v38.18h14.48Zm31,0-2.85-11.1H432.84l-3,11.1h-8l13.38-44.93h8.31l12.79,44.93ZM486.67,312h-10.2V350.2h-7.72V312h-10.2v-6.75h28.12Zm33.51,0H510V350.2h-7.73V312H492.06v-6.75h28.12Zm31.56-.06h-15.2v11.49h12.14V330H536.61V350.2h-7.86V305.27h23Zm24.35,39.09c-11.5,0-17.34-7.21-17.34-23.18,0-15.78,6-23.45,17.27-23.45s17.21,7.54,17.21,23.25C593.23,343.65,587.58,351.05,576.09,351.05ZM150.18,297.12a8.54,8.54,0,0,1-8.53-8.53V246a8.54,8.54,0,0,1,8.53-8.52h443.4A8.53,8.53,0,0,1,602.1,246v42.56a8.54,8.54,0,0,1-8.52,8.53ZM624.33,350.2l-4-12.72c-1.56-5-3.12-6-6.3-6H611V350.2H603.1V305.27h13.25c10.06,0,14.87,4.28,14.87,12.66,0,7.14-2.86,10.33-8.25,11.82,2.6.91,4.29,3.38,5.78,7.92l4.09,12.53Zm54.74,0h-7.66V327.15c0-7.47.33-12.92.52-15.39h-.13a118.87,118.87,0,0,1-3.38,14.29l-5.13,16.23h-7.2L651,326.76a113.17,113.17,0,0,1-3.25-15h-.13c.2,2.4.52,9,.52,15.52V350.2h-6.94V305.27h10.84l6.1,20.91A47.49,47.49,0,0,1,660,336.37h.13a53,53,0,0,1,1.75-10.19l6-20.91h11.23Z" transform="translate(-140 -101.28)"/><path class="cls-3" d="M576,310.79c-6.49,0-8.77,4.8-8.77,16.82,0,12.2,2.28,17.14,8.77,17.14s8.7-4.81,8.7-16.95S582.51,310.79,576,310.79Z" transform="translate(-140 -101.28)"/><path class="cls-3" d="M439.2,314.1h-.13a86.12,86.12,0,0,1-2.47,11.17l-2.07,7.66h9l-1.95-7.66A103.9,103.9,0,0,1,439.2,314.1Z" transform="translate(-140 -101.28)"/><path class="cls-3" d="M616.41,311.89H611V325.4h5.52c4.93,0,6.49-2.27,6.49-7.14C623,313.71,621.22,311.89,616.41,311.89Z" transform="translate(-140 -101.28)"/><path class="cls-3" d="M371,311.89h-5.65V326.7H371c4.47,0,6.55-1.69,6.55-7.28C377.51,313.65,375.57,311.89,371,311.89Z" transform="translate(-140 -101.28)"/><path class="cls-3" d="M165.18,289.64c10,0,13.18-5.84,13.18-12.13,0-8.49-5.17-11.08-11.76-13.6-5.11-2-6.78-3.21-6.78-7.52s2.59-5.91,6.66-5.91a12,12,0,0,1,7.57,2.53l2.34-4.44c-2.71-1.91-5.6-2.95-10.22-2.95-7.39,0-11.95,3.69-11.95,11,0,7.08,3.2,9.91,10.22,12.62,5.18,2,8.07,3.45,8.07,8.62,0,4.37-2.09,7-7.76,7-4.12,0-6.46-1-9.85-3.57l-2.46,4.12a19.92,19.92,0,0,0,12.74,4.31Zm29.62-.8h5.67v-37.5h10v-4.92H184.76v4.92h10v37.5Zm24.88,0h22.54v-4.92H225.34V269.08h13v-4.87h-13V251.28h16.08v-4.86H219.68v42.42Zm44.09.8a14.64,14.64,0,0,0,10.4-4.74l1,3.94h4.19V246.42h-5.67v34.36a13.25,13.25,0,0,1-9.3,3.94c-5.35,0-6.52-2.83-6.52-9.05V246.42h-5.67v30.23c0,9.85,5.67,13,11.58,13Zm28.32-.8h22.54v-4.92H297.76V269.08h13v-4.87h-13V251.28h16.07v-4.86H292.09v42.42Zm32.76,0h5.67V270.68h4c2.83,0,4.62,1.05,6.46,6.22l4.25,11.94h6.22l-4.37-12.19c-1.54-4.37-3.2-6.34-5.36-7.14,5.42-1.48,8.07-4.8,8.07-11.27,0-8-5.05-11.82-13.12-11.82H324.85v42.42Zm5.67-22.78V251.28h5.91c5.6,0,7.45,2.1,7.45,7,0,5.3-1.79,7.76-7.45,7.76ZM360,288.84h13.18c7.88,0,13.42-3.44,13.42-11.88,0-6.28-2.95-9.48-7.08-10.65,4.06-1.73,5.17-4.13,5.17-8.56,0-6.65-3.26-11.33-12.19-11.33H360v42.42Zm5.67-4.74V269.2h7.14c5.85,0,7.76,2.34,7.76,7.45s-2.1,7.45-8,7.45Zm-.07-19.7V251.16h6.72c5,0,6.4,2.28,6.4,6.71s-1.11,6.53-6.1,6.53Zm31,24.44h22.53v-4.92H402.19V269.08h13v-4.87h-13V251.28h16.07v-4.86H396.53v42.42Zm32.75,0H435V270.68h4c2.84,0,4.62,1.05,6.47,6.22l4.25,11.94h6.22l-4.38-12.19c-1.53-4.37-3.2-6.34-5.35-7.14,5.42-1.48,8.06-4.8,8.06-11.27,0-8-5.05-11.82-13.11-11.82H429.28v42.42ZM435,266.06V251.28h5.91c5.61,0,7.45,2.1,7.45,7,0,5.3-1.78,7.76-7.45,7.76Zm25.74,22.78h5.79l3.57-12.31h13.11l3.45,12.31h6.22l-12.74-42.48h-6.28l-13.12,42.48Zm12.93-24.44a102.41,102.41,0,0,0,3.08-12.26h.12a121.84,121.84,0,0,0,3,12.26l2,7.33H471.47l2.15-7.33Zm32.27,24.44h5.66v-37.5h10v-4.92H495.85v4.92h10v37.5Zm24.87,0H553.3v-4.92H536.43V269.08h13v-4.87h-13V251.28H552.5v-4.86H530.76v42.42Zm32.76,0h5.67V270.68h4c2.83,0,4.62,1.05,6.47,6.22l4.24,11.94h6.22l-4.37-12.19c-1.54-4.37-3.2-6.34-5.36-7.14,5.42-1.48,8.07-4.8,8.07-11.27,0-8-5.05-11.82-13.11-11.82H563.52v42.42Zm5.67-22.78V251.28h5.91c5.6,0,7.45,2.1,7.45,7,0,5.3-1.79,7.76-7.45,7.76Z" transform="translate(-140 -101.28)"/></svg>