<?xml version="1.0" encoding="UTF-8"?>
<!DOCTYPE svg PUBLIC "-//W3C//DTD SVG 1.1//EN" "http://www.w3.org/Graphics/SVG/1.1/DTD/svg11.dtd">
<svg version="1.1" id="Ebene_1" xmlns="http://www.w3.org/2000/svg" xmlns:xlink="http://www.w3.org/1999/xlink" x="0px" y="0px" width="400px" height="110px" viewBox="0 0 400 110" enable-background="new 0 0 400 110" xml:space="preserve">
	<path fill="#8C2A3A" d="M131.589,23.674c2.32,0,3.318-1.132,3.318-3.635c0-2.223-0.756-3.519-3.318-3.519h-3.117v7.154H131.589z M131.431,11.756c2.12,0,2.84-1.131,2.84-3.232c0-2.063-0.885-3.027-2.918-3.027h-2.88v6.259H131.431z M122.595,0.526h10.434 c4.438,0,7.276,2.223,7.276,7.195c0,3.063-0.8,4.795-3.602,5.932c2.6,0.605,4.646,2.668,4.646,6.709 c0,5.696-2.803,8.236-8.722,8.236h-10.033V0.526z"/>
	<path fill="#8C2A3A" d="M145.382,19.552V0.531h5.999v19.177c0,3.157,0.877,4.409,3.477,4.409c2.599,0,3.481-1.295,3.481-4.446V0.531 h5.994V19.47c0,7.435-4.359,9.654-9.513,9.654C149.622,29.124,145.382,26.946,145.382,19.552"/>
	<path fill="#8C2A3A" d="M169.69,0.526h5.678l5.76,12.443c0.957,2.019,1.836,4.607,2.398,6.502h0.036 c-0.195-1.741-0.555-4.928-0.555-7.473V0.526h5.394v28.076h-5.994l-5.36-12.082c-1.161-2.584-1.957-4.845-2.557-6.699 c0,0.04-0.042,0-0.042,0c0.161,1.367,0.681,4.722,0.681,8.192v10.589h-5.439V0.526z"/>
	<path fill="#8C2A3A" d="M202.636,23.426c3.234,0,4.434-1.49,4.434-9.367c0-6.991-1.276-8.444-4.555-8.444h-2.719v17.811H202.636z M193.795,0.53h8.958c7.041,0,10.792,3.509,10.792,13.728c0,9.254-2.632,14.343-10.551,14.343h-9.199V0.53z"/>
	<polygon fill="#8C2A3A" points="218.105,0.526 232.979,0.526 232.979,5.658 224.11,5.658 224.11,11.514 231.178,11.514 231.178,16.482 224.11,16.482 224.11,23.426 233.656,23.426 233.656,28.602 218.105,28.602 "/>
	<path fill="#8C2A3A" d="M236.177,26.539l1.998-4.684c1.922,1.372,4.085,2.14,6.362,2.14c2.799,0,3.998-1.256,3.998-3.312 c0-2.224-1.163-2.831-3.72-3.637c-4.596-1.45-7.518-3.234-7.518-8.805c0-5.696,3.594-8.242,8.792-8.242 c3.363,0,5.442,0.691,7.521,1.94l-2.127,4.523c-1.712-1.052-2.912-1.369-4.91-1.369c-2.085,0-3.198,0.923-3.198,2.664 c0,1.903,0.638,2.588,3.16,3.391c4.48,1.378,8.273,2.868,8.273,9.052c0,5.327-2.477,8.922-9.721,8.922 C241.417,29.124,238.018,27.952,236.177,26.539"/>
	<path fill="#8C2A3A" d="M121.195,67.225l1.999-4.689c1.921,1.373,4.078,2.139,6.359,2.139c2.796,0,3.995-1.254,3.995-3.308 c0-2.223-1.155-2.827-3.717-3.642c-4.595-1.452-7.519-3.227-7.519-8.797c0-5.698,3.603-8.243,8.8-8.243 c3.355,0,5.438,0.687,7.516,1.941l-2.121,4.521c-1.718-1.048-2.917-1.374-4.917-1.374c-2.08,0-3.196,0.932-3.196,2.662 c0,1.902,0.636,2.588,3.159,3.396c4.474,1.378,8.271,2.868,8.271,9.051c0,5.332-2.475,8.924-9.714,8.924 C126.432,69.805,123.037,68.632,121.195,67.225"/>
	<polygon fill="#8C2A3A" points="148.702,46.38 142.701,46.38 142.701,41.21 160.618,41.21 160.618,46.38 154.619,46.38 154.619,69.277 148.702,69.277 "/>
	<polygon fill="#8C2A3A" points="164.534,41.204 179.408,41.204 179.408,46.337 170.533,46.337 170.533,52.196 177.605,52.196 177.605,57.157 170.533,57.157 170.533,64.111 180.085,64.111 180.085,69.282 164.534,69.282 "/>
	<path fill="#8C2A3A" d="M184.004,60.233V41.203h5.999v19.192c0,3.15,0.876,4.396,3.478,4.396c2.598,0,3.475-1.286,3.475-4.437 V41.203h6v18.943c0,7.44-4.358,9.659-9.515,9.659C188.242,69.805,184.004,67.622,184.004,60.233"/>
	<polygon fill="#8C2A3A" points="208.312,41.204 223.185,41.204 223.185,46.337 214.313,46.337 214.313,52.196 221.384,52.196 221.384,57.157 214.313,57.157 214.313,64.111 223.86,64.111 223.86,69.282 208.312,69.282 "/>
	<path fill="#8C2A3A" d="M236.856,53.361c2.443,0,3.202-1.163,3.202-3.791c0-2.384-0.928-3.275-3.24-3.275h-2.922v7.066H236.856z M227.901,41.21h8.713c7.114,0,9.76,2.862,9.76,8.037c0,4.598-1.761,6.414-4.922,7.308c1.801,0.568,2.803,2.304,3.597,5.085 l2.204,7.639h-6.398l-2.155-7.997c-0.764-2.83-1.439-3.435-3.559-3.435h-1.244v11.432h-5.995V41.21z"/>
	<path fill="#8C2A3A" d="M259.884,64.354c2.319,0,3.321-1.129,3.321-3.634c0-2.224-0.764-3.516-3.321-3.516h-3.117v7.149H259.884z M259.727,52.436c2.115,0,2.841-1.132,2.841-3.23c0-2.06-0.887-3.029-2.916-3.029h-2.885v6.26H259.727z M250.895,41.204h10.433 c4.438,0,7.271,2.224,7.271,7.197c0,3.064-0.794,4.802-3.597,5.932c2.599,0.605,4.644,2.664,4.644,6.704 c0,5.695-2.805,8.243-8.721,8.243h-10.03V41.204z"/>
	<polygon fill="#8C2A3A" points="273.801,41.204 288.673,41.204 288.673,46.337 279.794,46.337 279.794,52.196 286.872,52.196 286.872,57.157 279.794,57.157 279.794,64.111 289.349,64.111 289.349,69.282 273.801,69.282 "/>
	<path fill="#8C2A3A" d="M302.35,53.361c2.435,0,3.19-1.163,3.19-3.791c0-2.384-0.918-3.275-3.23-3.275h-2.924v7.066H302.35z M293.385,41.21h8.719c7.118,0,9.756,2.862,9.756,8.037c0,4.598-1.758,6.414-4.914,7.308c1.797,0.568,2.801,2.304,3.598,5.085 l2.199,7.639h-6.396l-2.164-7.997c-0.758-2.83-1.441-3.435-3.553-3.435h-1.244v11.432h-6.001V41.21z"/>
	<path fill="#8C2A3A" d="M322.894,59.021h4.361l-1.083-4.731c-0.599-2.497-0.833-4.437-1.002-5.856h-0.038 c-0.196,1.419-0.439,3.359-1.075,5.856L322.894,59.021z M322.216,41.204h6.198l7.518,28.076h-6.358l-1.28-5.698h-6.513l-1.363,5.698 h-6.119L322.216,41.204z"/>
	<polygon fill="#8C2A3A" points="342.842,46.38 336.849,46.38 336.849,41.21 354.763,41.21 354.763,46.38 348.762,46.38 348.762,69.277 342.842,69.277 "/>
	<polygon fill="#8C2A3A" points="358.679,41.204 373.55,41.204 373.55,46.337 364.672,46.337 364.672,52.196 371.75,52.196 371.75,57.157 364.672,57.157 364.672,64.111 374.235,64.111 374.235,69.282 358.679,69.282 "/>
	<path fill="#8C2A3A" d="M387.224,53.361c2.441,0,3.2-1.163,3.2-3.791c0-2.384-0.924-3.275-3.234-3.275h-2.926v7.066H387.224z M378.271,41.21h8.711c7.118,0,9.757,2.862,9.757,8.037c0,4.598-1.76,6.414-4.915,7.308c1.798,0.568,2.797,2.304,3.598,5.085 l2.2,7.639h-6.397l-2.159-7.997c-0.764-2.83-1.441-3.435-3.564-3.435h-1.236v11.432h-5.993V41.21z"/>
	<polygon fill="#8C2A3A" points="122.714,81.891 128.713,81.891 128.713,94.451 135.229,81.891 141.626,81.891 134.428,94.69 142.345,109.963 135.587,109.963 128.713,95.259 128.713,109.963 122.714,109.963 "/>
	<path fill="#8C2A3A" d="M151.741,99.701h4.359l-1.079-4.727c-0.602-2.507-0.84-4.447-1.003-5.856h-0.039 c-0.203,1.409-0.441,3.35-1.079,5.856L151.741,99.701z M151.058,81.891h6.202l7.513,28.072h-6.357l-1.278-5.697h-6.516l-1.362,5.697 h-6.117L151.058,81.891z"/>
	<path fill="#8C2A3A" d="M169.573,81.891h6.916L179.205,94c0.564,2.47,0.843,4.572,1.079,6.59h0.043 c0.197-1.981,0.519-4.16,1.08-6.504l2.877-12.195h6.799l2.078,28.072h-5.921l-0.794-12.565c-0.203-2.743-0.203-4.926-0.125-6.82 h-0.077c-0.238,1.895-0.523,4.843-1.123,7.427l-2.716,11.959h-4.517l-2.639-11.838c-0.636-2.828-0.876-5.615-1.159-7.548h-0.083 c0.083,2.056,0.12,4.397-0.077,7.065l-0.802,12.32h-5.715L169.573,81.891z"/>
	<path fill="#8C2A3A" d="M199.519,81.891h6.914L209.15,94c0.563,2.47,0.843,4.572,1.079,6.59h0.044 c0.194-1.981,0.517-4.16,1.079-6.504l2.875-12.195h6.802l2.079,28.072h-5.921l-0.794-12.565c-0.206-2.743-0.206-4.926-0.127-6.82 h-0.079c-0.233,1.895-0.52,4.843-1.121,7.427l-2.718,11.959h-4.517l-2.638-11.838c-0.636-2.828-0.877-5.615-1.159-7.548h-0.081 c0.081,2.056,0.117,4.397-0.077,7.065l-0.802,12.32h-5.715L199.519,81.891z"/>
	<polygon fill="#8C2A3A" points="227.943,81.891 242.82,81.891 242.82,87.02 233.942,87.02 233.942,92.875 241.015,92.875 241.015,97.843 233.942,97.843 233.942,104.792 243.494,104.792 243.494,109.963 227.943,109.963 "/>
	<path fill="#8C2A3A" d="M256.49,94.042c2.438,0,3.198-1.167,3.198-3.797c0-2.385-0.924-3.27-3.24-3.27h-2.918v7.066H256.49z M247.537,81.891h8.715c7.118,0,9.748,2.862,9.748,8.037c0,4.602-1.753,6.422-4.91,7.309c1.797,0.566,2.801,2.3,3.593,5.091 l2.204,7.632h-6.4l-2.157-7.993c-0.764-2.829-1.439-3.434-3.563-3.434h-1.236v11.427h-5.993V81.891z"/>
	<rect y="0.501" fill="#8C2A3A" width="109.304" height="1.897"/>
	<rect y="108.072" fill="#8C2A3A" width="109.304" height="1.891"/>
	<path fill="#8C2A3A" d="M70.641,102.677c-1.846,0.802-3.869,1.434-6.09,1.903h44.753v-1.903H70.641z"/>
	<path fill="#8C2A3A" d="M78.33,97.282c-0.619,0.682-1.283,1.313-1.982,1.902h32.953v-1.902H78.33z"/>
	<path fill="#8C2A3A" d="M81.863,92.051c-0.316,0.663-0.664,1.286-1.035,1.902h28.474v-1.902H81.863z"/>
	<path fill="#8C2A3A" d="M83.799,86.506c-0.158,0.66-0.351,1.274-0.544,1.902h26.049v-1.902H83.799z"/>
	<path fill="#8C2A3A" d="M84.658,81.139c-0.063,0.633-0.11,1.286-0.197,1.895h24.841v-1.895H84.658z"/>
	<path fill="#8C2A3A" d="M84.931,75.901v0.037c0,0.643-0.042,1.239-0.06,1.863h24.432v-1.9H84.931z"/>
	<path fill="#8C2A3A" d="M84.518,70.355c0.096,0.616,0.161,1.248,0.224,1.9h24.562v-1.9H84.518z"/>
	<path fill="#8C2A3A" d="M83.162,64.964c0.221,0.614,0.427,1.247,0.613,1.906h25.522v-1.906H83.162z"/>
	<path fill="#8C2A3A" d="M80.445,59.75c0.427,0.601,0.83,1.234,1.2,1.9h27.659v-1.9H80.445z"/>
	<path fill="#8C2A3A" d="M74.356,54.21c0.956,0.553,1.862,1.187,2.712,1.897h32.234V54.21H74.356z"/>
	<path fill="#8C2A3A" d="M73.579,48.968c-0.971,0.677-2.06,1.316-3.273,1.905h38.997v-1.905H73.579z"/>
	<path fill="#8C2A3A" d="M78.573,43.58c-0.374,0.671-0.801,1.296-1.27,1.901h31.995V43.58H78.573z"/>
	<path fill="#8C2A3A" d="M80.504,38.192c-0.133,0.657-0.297,1.281-0.481,1.905h29.279v-1.905H80.504z"/>
	<path fill="#8C2A3A" d="M81.134,32.822c-0.028,0.652-0.071,1.286-0.124,1.9h28.29v-1.9H81.134z"/>
	<path fill="#8C2A3A" d="M81.08,27.429c0.043,0.619,0.054,1.263,0.069,1.9h28.148v-1.9H81.08z"/>
	<path fill="#8C2A3A" d="M78.395,16.652c0.3,0.605,0.57,1.245,0.82,1.903h30.082v-1.903H78.395z"/>
	<path fill="#8C2A3A" d="M80.273,22.045c0.145,0.619,0.287,1.246,0.396,1.896h28.635v-1.896H80.273z"/>
	<path fill="#8C2A3A" d="M74.534,11.263c0.596,0.588,1.144,1.229,1.667,1.897h33.102v-1.897H74.534z"/>
	<path fill="#8C2A3A" d="M65.133,5.893c1.683,0.495,3.258,1.127,4.704,1.901h39.463V5.893H65.133z"/>
	<path fill="#8C2A3A" d="M6.121,58.604c1.579,0,2.255-0.766,2.255-2.47c0-1.512-0.509-2.383-2.255-2.383H4.008v4.853H6.121z M6.015,50.505c1.444,0,1.938-0.775,1.938-2.205c0-1.4-0.597-2.053-1.989-2.053H4.008v4.257H6.015z M0.008,42.871h7.096 c3.021,0,4.956,1.508,4.956,4.886c0,2.083-0.544,3.265-2.452,4.041c1.765,0.411,3.152,1.812,3.152,4.556 c0,3.881-1.898,5.604-5.926,5.604H0.008V42.871z"/>
	<path fill="#8C2A3A" d="M14.552,60.563l1.359-3.185c1.313,0.924,2.782,1.445,4.328,1.445c1.903,0,2.723-0.854,2.723-2.243 c0-1.525-0.795-1.927-2.532-2.48c-3.129-0.985-5.111-2.196-5.111-5.988c0-3.871,2.446-5.612,5.981-5.612 c2.287,0,3.702,0.474,5.111,1.324l-1.433,3.081c-1.176-0.716-1.996-0.941-3.348-0.941c-1.422,0-2.182,0.634-2.182,1.82 c0,1.281,0.437,1.761,2.148,2.306c3.049,0.931,5.628,1.958,5.628,6.151c0,3.63-1.683,6.077-6.603,6.077 C18.115,62.318,15.804,61.518,14.552,60.563"/>
	<path fill="#8C2A3A" d="M29.075,47.913h1.409v-3.433l3.841-0.655v4.088h2.556v2.943h-2.556v7.039c0,1.21,0.354,1.486,1.036,1.486 c0.572,0,0.943-0.219,1.194-0.305l0.519,2.642c-0.595,0.267-1.364,0.604-2.667,0.604c-2.367,0-3.922-0.825-3.922-3.528v-7.938 h-1.409V47.913z"/>
	<path fill="#8C2A3A" d="M45.641,58.604c1.572,0,2.253-0.766,2.253-2.47c0-1.512-0.513-2.383-2.253-2.383h-2.119v4.853H45.641z M45.53,50.505c1.442,0,1.93-0.775,1.93-2.205c0-1.4-0.597-2.053-1.985-2.053h-1.954v4.257H45.53z M39.518,42.871h7.1 c3.021,0,4.954,1.508,4.954,4.886c0,2.083-0.547,3.265-2.449,4.041c1.769,0.411,3.153,1.812,3.153,4.556 c0,3.881-1.902,5.604-5.931,5.604h-6.826V42.871z"/>
	<polygon fill="#8C2A3A" points="55.242,42.871 59.317,42.871 59.317,51.407 63.753,42.871 68.106,42.871 63.209,51.575 68.596,61.957 63.995,61.957 59.317,51.953 59.317,61.957 55.242,61.957 "/>
</svg>