<svg width="366" height="214" viewBox="0 0 366 214" fill="none" xmlns="http://www.w3.org/2000/svg">
<g clip-path="url(#clip0_1292_19577)">
<path d="M1.20318e-05 114.665V211.641C-0.0073941 211.754 0.0191074 211.867 0.076175 211.965C0.133243 212.063 0.218298 212.143 0.320529 212.192C0.422761 212.242 0.537558 212.261 0.650361 212.246C0.763164 212.23 0.868886 212.182 0.954091 212.107L51.523 165.96C51.6642 165.828 51.7775 165.668 51.8563 165.491C51.9351 165.315 51.9778 165.124 51.9819 164.931C51.986 164.737 51.9514 164.545 51.8801 164.365C51.8088 164.185 51.7023 164.021 51.5668 163.882L0.975988 114.207C0.891785 114.126 0.784805 114.072 0.669257 114.053C0.553708 114.034 0.435074 114.05 0.32913 114.1C0.223187 114.15 0.134951 114.231 0.0761601 114.332C0.0173693 114.433 -0.00918516 114.549 1.20318e-05 114.665Z" fill="#C5D6DD"/>
<path d="M98.8693 168.392L87.0674 179.985C84.5058 182.53 81.0377 183.959 77.4219 183.961C73.9621 183.974 70.6373 182.623 68.1731 180.201L56.1473 168.395L55.8065 168.06L6.09441 213.417C6.04525 213.461 6.01018 213.518 5.99362 213.582C5.97706 213.646 5.97975 213.713 6.00136 213.775C6.02297 213.837 6.06254 213.891 6.11505 213.931C6.16756 213.97 6.23068 213.994 6.29643 213.998H148.727C148.793 213.994 148.856 213.97 148.909 213.931C148.961 213.891 149.001 213.837 149.023 213.775C149.044 213.713 149.047 213.646 149.03 213.582C149.014 213.518 148.979 213.461 148.929 213.417L99.2076 168.052L98.8693 168.392Z" fill="#C5D6DD"/>
<path d="M103.491 165.96L153.958 212.005C154.043 212.08 154.149 212.129 154.261 212.144C154.374 212.16 154.489 212.142 154.591 212.093C154.694 212.043 154.78 211.965 154.837 211.867C154.895 211.77 154.923 211.657 154.917 211.544V141.185C158.673 139.897 162.046 137.692 164.728 134.771C167.411 131.85 169.318 128.305 170.275 124.461C171.232 120.617 171.21 116.595 170.209 112.762C169.209 108.928 167.262 105.405 164.547 102.514C161.832 99.6234 158.435 97.456 154.665 96.2096C150.894 94.9633 146.871 94.6778 142.962 95.379C139.053 96.0802 135.382 97.7459 132.284 100.224C129.185 102.703 126.758 105.915 125.223 109.568H3.35386C3.28869 109.572 3.22602 109.595 3.17351 109.633C3.12101 109.672 3.08096 109.725 3.05824 109.786C3.03552 109.847 3.03112 109.913 3.04558 109.977C3.06005 110.04 3.09274 110.098 3.13967 110.144L55.9185 161.955L59.0826 165.067L71.1084 176.868C71.5342 177.293 72.006 177.669 72.5152 177.99L73.0579 178.276C73.3895 178.468 73.7325 178.64 74.085 178.791L74.7714 178.987C75.0971 179.095 75.4286 179.185 75.7644 179.257L76.5092 179.327C76.8379 179.369 77.1685 179.393 77.4998 179.4C77.8364 179.387 78.172 179.356 78.505 179.305L79.2789 179.218C79.6277 179.14 79.9708 179.04 80.306 178.917L81.0094 178.701C81.3825 178.535 81.745 178.346 82.095 178.135L82.6499 177.839C83.1838 177.494 83.6813 177.095 84.1346 176.65L95.934 165.065L99.0981 161.953L128.361 133.231C129.267 134.398 130.279 135.478 131.384 136.46L103.452 163.887C103.317 164.025 103.211 164.189 103.14 164.368C103.068 164.547 103.034 164.739 103.037 164.932C103.041 165.125 103.083 165.315 103.161 165.491C103.239 165.668 103.351 165.827 103.491 165.96ZM129.458 118.743C129.458 115.246 130.497 111.827 132.445 108.919C134.393 106.011 137.162 103.744 140.402 102.405C143.642 101.066 147.207 100.716 150.647 101.398C154.087 102.08 157.246 103.764 159.726 106.237C162.206 108.709 163.895 111.86 164.579 115.29C165.264 118.72 164.913 122.276 163.571 125.507C162.229 128.738 159.956 131.5 157.04 133.443C154.124 135.386 150.696 136.423 147.189 136.423C142.489 136.419 137.982 134.555 134.657 131.24C131.333 127.925 129.464 123.431 129.458 118.743Z" fill="#C5D6DD"/>
<path d="M129.458 118.743C129.458 122.241 130.498 125.66 132.446 128.568C134.393 131.476 137.163 133.743 140.402 135.081C143.642 136.42 147.207 136.771 150.647 136.089C154.087 135.407 157.246 133.723 159.726 131.25C162.206 128.777 163.895 125.626 164.579 122.196C165.264 118.766 164.913 115.211 163.571 111.979C162.229 108.748 159.956 105.986 157.04 104.043C154.124 102.1 150.696 101.063 147.189 101.063C142.489 101.068 137.982 102.932 134.658 106.246C131.333 109.561 129.464 114.055 129.458 118.743Z" fill="#6CEAAD"/>
</g>
<path d="M171.939 20.5312C171.939 19.2539 171.594 18.2754 170.902 17.5957C170.211 16.916 168.963 16.2539 167.158 15.6094C165.354 14.9648 163.971 14.291 163.01 13.5879C162.061 12.873 161.346 12.0645 160.865 11.1621C160.396 10.248 160.162 9.20508 160.162 8.0332C160.162 6.00586 160.836 4.33594 162.184 3.02344C163.543 1.71094 165.318 1.05469 167.51 1.05469C169.01 1.05469 170.346 1.39453 171.518 2.07422C172.689 2.74219 173.592 3.67383 174.225 4.86914C174.857 6.06445 175.174 7.37695 175.174 8.80664H171.939C171.939 7.22461 171.559 6 170.797 5.13281C170.035 4.26563 168.939 3.83203 167.51 3.83203C166.209 3.83203 165.201 4.19531 164.486 4.92188C163.771 5.64844 163.414 6.66797 163.414 7.98047C163.414 9.05859 163.801 9.96094 164.574 10.6875C165.348 11.4141 166.543 12.0645 168.16 12.6387C170.68 13.4707 172.479 14.4961 173.557 15.7148C174.646 16.9336 175.191 18.5273 175.191 20.4961C175.191 22.5703 174.518 24.2344 173.17 25.4883C171.822 26.7305 169.988 27.3516 167.668 27.3516C166.18 27.3516 164.803 27.0293 163.537 26.3848C162.283 25.7285 161.293 24.8145 160.566 23.6426C159.852 22.459 159.494 21.1055 159.494 19.582H162.729C162.729 21.1641 163.168 22.3945 164.047 23.2734C164.938 24.1523 166.145 24.5918 167.668 24.5918C169.086 24.5918 170.152 24.2285 170.867 23.502C171.582 22.7754 171.939 21.7852 171.939 20.5312ZM183.066 3.375V7.98047H185.932V10.4941H183.066V22.2891C183.066 23.0391 183.189 23.6074 183.436 23.9941C183.682 24.3809 184.104 24.5742 184.701 24.5742C185.111 24.5742 185.527 24.5039 185.949 24.3633L185.914 27C185.211 27.2344 184.49 27.3516 183.752 27.3516C182.521 27.3516 181.584 26.9121 180.939 26.0332C180.295 25.1543 179.973 23.9121 179.973 22.3066V10.4941H177.072V7.98047H179.973V3.375H183.066ZM196.443 27.3516C194.076 27.3516 192.26 26.6484 190.994 25.2422C189.729 23.8242 189.084 21.75 189.061 19.0195V16.7168C189.061 13.8809 189.676 11.6602 190.906 10.0547C192.148 8.4375 193.877 7.62891 196.092 7.62891C198.318 7.62891 199.982 8.33789 201.084 9.75586C202.186 11.1738 202.748 13.3828 202.771 16.3828V18.4219H192.154V18.8613C192.154 20.9004 192.535 22.3828 193.297 23.3086C194.07 24.2344 195.178 24.6973 196.619 24.6973C197.533 24.6973 198.336 24.5273 199.027 24.1875C199.73 23.8359 200.387 23.2852 200.996 22.5352L202.613 24.5039C201.266 26.4023 199.209 27.3516 196.443 27.3516ZM196.092 10.3008C194.803 10.3008 193.848 10.7461 193.227 11.6367C192.605 12.5156 192.254 13.8867 192.172 15.75H199.66V15.3281C199.578 13.5234 199.25 12.2344 198.676 11.4609C198.113 10.6875 197.252 10.3008 196.092 10.3008ZM216.219 25.3301C215.188 26.6777 213.682 27.3516 211.701 27.3516C209.979 27.3516 208.678 26.7598 207.799 25.5762C206.92 24.3809 206.475 22.6465 206.463 20.373V7.98047H209.557V20.1445C209.557 23.1094 210.447 24.5918 212.229 24.5918C214.115 24.5918 215.416 23.748 216.131 22.0605V7.98047H219.242V27H216.289L216.219 25.3301ZM230.721 27.3516C228.354 27.3516 226.537 26.6484 225.271 25.2422C224.006 23.8242 223.361 21.75 223.338 19.0195V16.7168C223.338 13.8809 223.953 11.6602 225.184 10.0547C226.426 8.4375 228.154 7.62891 230.369 7.62891C232.596 7.62891 234.26 8.33789 235.361 9.75586C236.463 11.1738 237.025 13.3828 237.049 16.3828V18.4219H226.432V18.8613C226.432 20.9004 226.812 22.3828 227.574 23.3086C228.348 24.2344 229.455 24.6973 230.896 24.6973C231.811 24.6973 232.613 24.5273 233.305 24.1875C234.008 23.8359 234.664 23.2852 235.273 22.5352L236.891 24.5039C235.543 26.4023 233.486 27.3516 230.721 27.3516ZM230.369 10.3008C229.08 10.3008 228.125 10.7461 227.504 11.6367C226.883 12.5156 226.531 13.8867 226.449 15.75H233.938V15.3281C233.855 13.5234 233.527 12.2344 232.953 11.4609C232.391 10.6875 231.529 10.3008 230.369 10.3008ZM248.65 10.8984C248.217 10.8164 247.748 10.7754 247.244 10.7754C245.65 10.7754 244.537 11.6484 243.904 13.3945V27H240.793V7.98047H243.816L243.869 9.91406C244.701 8.39062 245.879 7.62891 247.402 7.62891C247.895 7.62891 248.305 7.71094 248.633 7.875L248.65 10.8984ZM265.543 18.4043C265.543 21.3691 265.01 23.6016 263.943 25.1016C262.877 26.6016 261.33 27.3516 259.303 27.3516C257.287 27.3516 255.775 26.4844 254.768 24.75L254.609 27H251.779V0H254.873V10.0723C255.893 8.44336 257.357 7.62891 259.268 7.62891C261.354 7.62891 262.918 8.36719 263.961 9.84375C265.004 11.3203 265.531 13.5469 265.543 16.5234V18.4043ZM262.449 16.6289C262.449 14.3789 262.133 12.7793 261.5 11.8301C260.879 10.8691 259.865 10.3887 258.459 10.3887C256.854 10.3887 255.658 11.2559 254.873 12.9902V22.043C255.646 23.7539 256.854 24.6094 258.494 24.6094C259.9 24.6094 260.908 24.1172 261.518 23.1328C262.127 22.1484 262.438 20.6191 262.449 18.5449V16.6289ZM276.318 27.3516C273.951 27.3516 272.135 26.6484 270.869 25.2422C269.604 23.8242 268.959 21.75 268.936 19.0195V16.7168C268.936 13.8809 269.551 11.6602 270.781 10.0547C272.023 8.4375 273.752 7.62891 275.967 7.62891C278.193 7.62891 279.857 8.33789 280.959 9.75586C282.061 11.1738 282.623 13.3828 282.646 16.3828V18.4219H272.029V18.8613C272.029 20.9004 272.41 22.3828 273.172 23.3086C273.945 24.2344 275.053 24.6973 276.494 24.6973C277.408 24.6973 278.211 24.5273 278.902 24.1875C279.605 23.8359 280.262 23.2852 280.871 22.5352L282.488 24.5039C281.141 26.4023 279.084 27.3516 276.318 27.3516ZM275.967 10.3008C274.678 10.3008 273.723 10.7461 273.102 11.6367C272.48 12.5156 272.129 13.8867 272.047 15.75H279.535V15.3281C279.453 13.5234 279.125 12.2344 278.551 11.4609C277.988 10.6875 277.127 10.3008 275.967 10.3008ZM294.248 10.8984C293.814 10.8164 293.346 10.7754 292.842 10.7754C291.248 10.7754 290.135 11.6484 289.502 13.3945V27H286.391V7.98047H289.414L289.467 9.91406C290.299 8.39062 291.477 7.62891 293 7.62891C293.492 7.62891 293.902 7.71094 294.23 7.875L294.248 10.8984ZM306.447 27C306.26 26.5898 306.125 25.8984 306.043 24.9258C304.941 26.543 303.535 27.3516 301.824 27.3516C300.102 27.3516 298.754 26.8711 297.781 25.9102C296.82 24.9375 296.34 23.5723 296.34 21.8145C296.34 19.8809 296.996 18.3457 298.309 17.209C299.621 16.0723 301.42 15.4922 303.705 15.4688H305.99V13.4473C305.99 12.3105 305.738 11.502 305.234 11.0215C304.73 10.541 303.963 10.3008 302.932 10.3008C301.994 10.3008 301.232 10.582 300.646 11.1445C300.061 11.6953 299.768 12.3984 299.768 13.2539H296.656C296.656 12.2812 296.943 11.3555 297.518 10.4766C298.092 9.58594 298.865 8.88867 299.838 8.38477C300.811 7.88086 301.895 7.62891 303.09 7.62891C305.035 7.62891 306.512 8.11523 307.52 9.08789C308.539 10.0488 309.061 11.4551 309.084 13.3066V22.9043C309.096 24.3691 309.295 25.6406 309.682 26.7188V27H306.447ZM302.299 24.5215C303.061 24.5215 303.787 24.3105 304.479 23.8887C305.17 23.4668 305.674 22.9395 305.99 22.3066V17.7715H304.232C302.756 17.7949 301.59 18.1289 300.734 18.7734C299.879 19.4062 299.451 20.2969 299.451 21.4453C299.451 22.5234 299.668 23.3086 300.102 23.8008C300.535 24.2812 301.268 24.5215 302.299 24.5215ZM317.996 3.375V7.98047H320.861V10.4941H317.996V22.2891C317.996 23.0391 318.119 23.6074 318.365 23.9941C318.611 24.3809 319.033 24.5742 319.631 24.5742C320.041 24.5742 320.457 24.5039 320.879 24.3633L320.844 27C320.141 27.2344 319.42 27.3516 318.682 27.3516C317.451 27.3516 316.514 26.9121 315.869 26.0332C315.225 25.1543 314.902 23.9121 314.902 22.3066V10.4941H312.002V7.98047H314.902V3.375H317.996ZM331.373 27.3516C329.006 27.3516 327.189 26.6484 325.924 25.2422C324.658 23.8242 324.014 21.75 323.99 19.0195V16.7168C323.99 13.8809 324.605 11.6602 325.836 10.0547C327.078 8.4375 328.807 7.62891 331.021 7.62891C333.248 7.62891 334.912 8.33789 336.014 9.75586C337.115 11.1738 337.678 13.3828 337.701 16.3828V18.4219H327.084V18.8613C327.084 20.9004 327.465 22.3828 328.227 23.3086C329 24.2344 330.107 24.6973 331.549 24.6973C332.463 24.6973 333.266 24.5273 333.957 24.1875C334.66 23.8359 335.316 23.2852 335.926 22.5352L337.543 24.5039C336.195 26.4023 334.139 27.3516 331.373 27.3516ZM331.021 10.3008C329.732 10.3008 328.777 10.7461 328.156 11.6367C327.535 12.5156 327.184 13.8867 327.102 15.75H334.59V15.3281C334.508 13.5234 334.18 12.2344 333.605 11.4609C333.043 10.6875 332.182 10.3008 331.021 10.3008ZM349.303 10.8984C348.869 10.8164 348.4 10.7754 347.896 10.7754C346.303 10.7754 345.189 11.6484 344.557 13.3945V27H341.445V7.98047H344.469L344.521 9.91406C345.354 8.39062 346.531 7.62891 348.055 7.62891C348.547 7.62891 348.957 7.71094 349.285 7.875L349.303 10.8984Z" fill="#C5D6DD"/>
<path d="M231.625 163.697H222.977V175H219.76V149.406H233.084V152.184H222.977V160.938H231.625V163.697ZM239.975 175H236.863V155.98H239.975V175ZM240.221 150.936C240.221 151.463 240.074 151.902 239.781 152.254C239.488 152.605 239.043 152.781 238.445 152.781C237.859 152.781 237.42 152.605 237.127 152.254C236.834 151.902 236.688 151.463 236.688 150.936C236.688 150.408 236.834 149.963 237.127 149.6C237.42 149.236 237.859 149.055 238.445 149.055C239.031 149.055 239.471 149.242 239.764 149.617C240.068 149.98 240.221 150.42 240.221 150.936ZM247.814 155.98L247.902 158.037C249.109 156.432 250.65 155.629 252.525 155.629C255.889 155.629 257.594 157.873 257.641 162.361V175H254.547V162.502C254.547 161.014 254.295 159.959 253.791 159.338C253.299 158.705 252.555 158.389 251.559 158.389C250.785 158.389 250.088 158.646 249.467 159.162C248.857 159.678 248.365 160.352 247.99 161.184V175H244.879V155.98H247.814ZM272.107 175C271.92 174.59 271.785 173.898 271.703 172.926C270.602 174.543 269.195 175.352 267.484 175.352C265.762 175.352 264.414 174.871 263.441 173.91C262.48 172.938 262 171.572 262 169.814C262 167.881 262.656 166.346 263.969 165.209C265.281 164.072 267.08 163.492 269.365 163.469H271.65V161.447C271.65 160.311 271.398 159.502 270.895 159.021C270.391 158.541 269.623 158.301 268.592 158.301C267.654 158.301 266.893 158.582 266.307 159.145C265.721 159.695 265.428 160.398 265.428 161.254H262.316C262.316 160.281 262.604 159.355 263.178 158.477C263.752 157.586 264.525 156.889 265.498 156.385C266.471 155.881 267.555 155.629 268.75 155.629C270.695 155.629 272.172 156.115 273.18 157.088C274.199 158.049 274.721 159.455 274.744 161.307V170.904C274.756 172.369 274.955 173.641 275.342 174.719V175H272.107ZM267.959 172.521C268.721 172.521 269.447 172.311 270.139 171.889C270.83 171.467 271.334 170.939 271.65 170.307V165.771H269.893C268.416 165.795 267.25 166.129 266.395 166.773C265.539 167.406 265.111 168.297 265.111 169.445C265.111 170.523 265.328 171.309 265.762 171.801C266.195 172.281 266.928 172.521 267.959 172.521ZM282.514 155.98L282.602 158.037C283.809 156.432 285.35 155.629 287.225 155.629C290.588 155.629 292.293 157.873 292.34 162.361V175H289.246V162.502C289.246 161.014 288.994 159.959 288.49 159.338C287.998 158.705 287.254 158.389 286.258 158.389C285.484 158.389 284.787 158.646 284.166 159.162C283.557 159.678 283.064 160.352 282.689 161.184V175H279.578V155.98H282.514ZM299.898 172.346H309.074V175H296.348V172.609L305.066 158.67H296.418V155.98H308.723V158.283L299.898 172.346ZM322.627 175C322.439 174.59 322.305 173.898 322.223 172.926C321.121 174.543 319.715 175.352 318.004 175.352C316.281 175.352 314.934 174.871 313.961 173.91C313 172.938 312.52 171.572 312.52 169.814C312.52 167.881 313.176 166.346 314.488 165.209C315.801 164.072 317.6 163.492 319.885 163.469H322.17V161.447C322.17 160.311 321.918 159.502 321.414 159.021C320.91 158.541 320.143 158.301 319.111 158.301C318.174 158.301 317.412 158.582 316.826 159.145C316.24 159.695 315.947 160.398 315.947 161.254H312.836C312.836 160.281 313.123 159.355 313.697 158.477C314.271 157.586 315.045 156.889 316.018 156.385C316.99 155.881 318.074 155.629 319.27 155.629C321.215 155.629 322.691 156.115 323.699 157.088C324.719 158.049 325.24 159.455 325.264 161.307V170.904C325.275 172.369 325.475 173.641 325.861 174.719V175H322.627ZM318.479 172.521C319.24 172.521 319.967 172.311 320.658 171.889C321.35 171.467 321.854 170.939 322.17 170.307V165.771H320.412C318.936 165.795 317.77 166.129 316.914 166.773C316.059 167.406 315.631 168.297 315.631 169.445C315.631 170.523 315.848 171.309 316.281 171.801C316.715 172.281 317.447 172.521 318.479 172.521ZM333.033 155.98L333.104 157.738C334.264 156.332 335.793 155.629 337.691 155.629C339.812 155.629 341.295 156.549 342.139 158.389C343.334 156.549 344.998 155.629 347.131 155.629C350.635 155.629 352.428 157.814 352.51 162.186V175H349.416V162.484C349.416 161.102 349.17 160.076 348.678 159.408C348.186 158.729 347.354 158.389 346.182 158.389C345.244 158.389 344.482 158.752 343.896 159.479C343.311 160.205 342.971 161.131 342.877 162.256V175H339.748V162.344C339.713 159.707 338.641 158.389 336.531 158.389C334.961 158.389 333.854 159.174 333.209 160.744V175H330.115V155.98H333.033ZM361.281 151.375V155.98H364.146V158.494H361.281V170.289C361.281 171.039 361.404 171.607 361.65 171.994C361.896 172.381 362.318 172.574 362.916 172.574C363.326 172.574 363.742 172.504 364.164 172.363L364.129 175C363.426 175.234 362.705 175.352 361.967 175.352C360.736 175.352 359.799 174.912 359.154 174.033C358.51 173.154 358.188 171.912 358.188 170.307V158.494H355.287V155.98H358.188V151.375H361.281Z" fill="#C5D6DD"/>
<path d="M222.76 101V75.4062H230.055C232.387 75.4062 234.139 75.9746 235.311 77.1113C236.494 78.248 237.086 79.9531 237.086 82.2266C237.086 83.4219 236.787 84.4766 236.189 85.3906C235.592 86.3047 234.783 87.0137 233.764 87.5176C234.936 87.8691 235.861 88.5898 236.541 89.6797C237.232 90.7695 237.578 92.082 237.578 93.6172C237.578 95.9141 236.945 97.7188 235.68 99.0312C234.426 100.344 232.633 101 230.301 101H222.76ZM225.977 89.0293V98.2402H230.371C231.59 98.2402 232.557 97.8418 233.271 97.0449C233.986 96.2363 234.344 95.1055 234.344 93.6523C234.344 90.5703 233.043 89.0293 230.441 89.0293H225.977ZM225.977 86.3223H230.107C231.221 86.3223 232.117 85.9473 232.797 85.1973C233.488 84.4473 233.834 83.4512 233.834 82.209C233.834 80.8027 233.523 79.7832 232.902 79.1504C232.281 78.5059 231.332 78.1836 230.055 78.1836H225.977V86.3223ZM248.775 101.352C246.408 101.352 244.592 100.648 243.326 99.2422C242.061 97.8242 241.416 95.75 241.393 93.0195V90.7168C241.393 87.8809 242.008 85.6602 243.238 84.0547C244.48 82.4375 246.209 81.6289 248.424 81.6289C250.65 81.6289 252.314 82.3379 253.416 83.7559C254.518 85.1738 255.08 87.3828 255.104 90.3828V92.4219H244.486V92.8613C244.486 94.9004 244.867 96.3828 245.629 97.3086C246.402 98.2344 247.51 98.6973 248.951 98.6973C249.865 98.6973 250.668 98.5273 251.359 98.1875C252.062 97.8359 252.719 97.2852 253.328 96.5352L254.945 98.5039C253.598 100.402 251.541 101.352 248.775 101.352ZM248.424 84.3008C247.135 84.3008 246.18 84.7461 245.559 85.6367C244.938 86.5156 244.586 87.8867 244.504 89.75H251.992V89.3281C251.91 87.5234 251.582 86.2344 251.008 85.4609C250.445 84.6875 249.584 84.3008 248.424 84.3008ZM261.959 83.9316C263.143 82.3965 264.654 81.6289 266.494 81.6289C269.857 81.6289 271.562 83.873 271.609 88.3613V101H268.516V88.502C268.516 87.0137 268.264 85.959 267.76 85.3379C267.268 84.7051 266.523 84.3887 265.527 84.3887C264.754 84.3887 264.057 84.6465 263.436 85.1621C262.826 85.6777 262.334 86.3516 261.959 87.1836V101H258.848V74H261.959V83.9316ZM275.6 90.6113C275.6 87.8457 276.268 85.6602 277.604 84.0547C278.951 82.4375 280.727 81.6289 282.93 81.6289C285.133 81.6289 286.902 82.4141 288.238 83.9844C289.586 85.5547 290.277 87.6934 290.312 90.4004V92.4043C290.312 95.1582 289.645 97.3379 288.309 98.9434C286.973 100.549 285.191 101.352 282.965 101.352C280.762 101.352 278.992 100.572 277.656 99.0137C276.332 97.4551 275.646 95.3457 275.6 92.6855V90.6113ZM278.711 92.4043C278.711 94.3613 279.092 95.9023 279.854 97.0273C280.627 98.1406 281.664 98.6973 282.965 98.6973C285.707 98.6973 287.119 96.7168 287.201 92.7559V90.6113C287.201 88.666 286.814 87.1309 286.041 86.0059C285.268 84.8691 284.23 84.3008 282.93 84.3008C281.652 84.3008 280.627 84.8691 279.854 86.0059C279.092 87.1309 278.711 88.6602 278.711 90.5938V92.4043ZM277.129 76.9004C277.129 76.373 277.287 75.9336 277.604 75.582C277.932 75.2188 278.412 75.0371 279.045 75.0371C279.678 75.0371 280.158 75.2188 280.486 75.582C280.814 75.9336 280.979 76.373 280.979 76.9004C280.979 77.4277 280.814 77.8672 280.486 78.2188C280.158 78.5703 279.678 78.7461 279.045 78.7461C278.412 78.7461 277.932 78.5703 277.604 78.2188C277.287 77.8672 277.129 77.4277 277.129 76.9004ZM284.688 76.9355C284.688 76.4082 284.846 75.9629 285.162 75.5996C285.49 75.2363 285.971 75.0547 286.604 75.0547C287.236 75.0547 287.717 75.2363 288.045 75.5996C288.373 75.9629 288.537 76.4082 288.537 76.9355C288.537 77.4629 288.373 77.9023 288.045 78.2539C287.717 78.6055 287.236 78.7812 286.604 78.7812C285.971 78.7812 285.49 78.6055 285.162 78.2539C284.846 77.9023 284.688 77.4629 284.688 76.9355ZM302.178 84.8984C301.744 84.8164 301.275 84.7754 300.771 84.7754C299.178 84.7754 298.064 85.6484 297.432 87.3945V101H294.32V81.9805H297.344L297.396 83.9141C298.229 82.3906 299.406 81.6289 300.93 81.6289C301.422 81.6289 301.832 81.7109 302.16 81.875L302.178 84.8984ZM304.287 90.6289C304.287 87.6992 304.832 85.4668 305.922 83.9316C307.023 82.3965 308.6 81.6289 310.65 81.6289C312.467 81.6289 313.885 82.3672 314.904 83.8438V74H318.016V101H315.168L315.01 98.9609C313.99 100.555 312.531 101.352 310.633 101.352C308.664 101.352 307.117 100.59 305.992 99.0664C304.879 97.5312 304.311 95.3691 304.287 92.5801V90.6289ZM307.398 92.4043C307.398 94.5371 307.715 96.1074 308.348 97.1152C308.98 98.1113 310.012 98.6094 311.441 98.6094C312.988 98.6094 314.143 97.8301 314.904 96.2715V86.6738C314.107 85.1504 312.959 84.3887 311.459 84.3887C310.029 84.3887 308.998 84.8926 308.365 85.9004C307.732 86.8965 307.41 88.4316 307.398 90.5059V92.4043ZM329.6 101.352C327.232 101.352 325.416 100.648 324.15 99.2422C322.885 97.8242 322.24 95.75 322.217 93.0195V90.7168C322.217 87.8809 322.832 85.6602 324.062 84.0547C325.305 82.4375 327.033 81.6289 329.248 81.6289C331.475 81.6289 333.139 82.3379 334.24 83.7559C335.342 85.1738 335.904 87.3828 335.928 90.3828V92.4219H325.311V92.8613C325.311 94.9004 325.691 96.3828 326.453 97.3086C327.227 98.2344 328.334 98.6973 329.775 98.6973C330.689 98.6973 331.492 98.5273 332.184 98.1875C332.887 97.8359 333.543 97.2852 334.152 96.5352L335.77 98.5039C334.422 100.402 332.365 101.352 329.6 101.352ZM329.248 84.3008C327.959 84.3008 327.004 84.7461 326.383 85.6367C325.762 86.5156 325.41 87.8867 325.328 89.75H332.816V89.3281C332.734 87.5234 332.406 86.2344 331.832 85.4609C331.27 84.6875 330.408 84.3008 329.248 84.3008Z" fill="#C5D6DD"/>
<path d="M196.584 186.406H199.818V204.529C199.818 206.979 199.191 208.895 197.938 210.277C196.695 211.66 195.02 212.352 192.91 212.352C190.742 212.352 189.055 211.695 187.848 210.383C186.641 209.07 186.037 207.254 186.037 204.934H189.254C189.254 206.398 189.576 207.541 190.221 208.361C190.865 209.182 191.762 209.592 192.91 209.592C194.023 209.592 194.914 209.146 195.582 208.256C196.25 207.365 196.584 206.117 196.584 204.512V186.406ZM214.426 210.33C213.395 211.678 211.889 212.352 209.908 212.352C208.186 212.352 206.885 211.76 206.006 210.576C205.127 209.381 204.682 207.646 204.67 205.373V192.98H207.764V205.145C207.764 208.109 208.654 209.592 210.436 209.592C212.322 209.592 213.623 208.748 214.338 207.061V192.98H217.449V212H214.496L214.426 210.33ZM231.371 207.131C231.371 206.463 231.119 205.889 230.615 205.408C230.111 204.928 229.139 204.365 227.697 203.721C226.021 203.029 224.838 202.438 224.146 201.945C223.467 201.453 222.957 200.896 222.617 200.275C222.277 199.643 222.107 198.893 222.107 198.025C222.107 196.479 222.67 195.195 223.795 194.176C224.932 193.145 226.379 192.629 228.137 192.629C229.988 192.629 231.477 193.168 232.602 194.246C233.727 195.324 234.289 196.707 234.289 198.395H231.195C231.195 197.539 230.908 196.812 230.334 196.215C229.76 195.605 229.027 195.301 228.137 195.301C227.223 195.301 226.502 195.541 225.975 196.021C225.459 196.49 225.201 197.123 225.201 197.92C225.201 198.553 225.389 199.062 225.764 199.449C226.15 199.836 227.07 200.346 228.523 200.979C230.832 201.881 232.402 202.766 233.234 203.633C234.066 204.488 234.482 205.578 234.482 206.902C234.482 208.555 233.914 209.879 232.777 210.875C231.641 211.859 230.117 212.352 228.207 212.352C226.227 212.352 224.621 211.783 223.391 210.646C222.16 209.51 221.545 208.068 221.545 206.322H224.674C224.709 207.377 225.031 208.203 225.641 208.801C226.25 209.398 227.105 209.697 228.207 209.697C229.238 209.697 230.023 209.469 230.562 209.012C231.102 208.543 231.371 207.916 231.371 207.131ZM242.621 188.375V192.98H245.486V195.494H242.621V207.289C242.621 208.039 242.744 208.607 242.99 208.994C243.236 209.381 243.658 209.574 244.256 209.574C244.666 209.574 245.082 209.504 245.504 209.363L245.469 212C244.766 212.234 244.045 212.352 243.307 212.352C242.076 212.352 241.139 211.912 240.494 211.033C239.85 210.154 239.527 208.912 239.527 207.307V195.494H236.627V192.98H239.527V188.375H242.621ZM252.553 212H249.441V192.98H252.553V212ZM252.799 187.936C252.799 188.463 252.652 188.902 252.359 189.254C252.066 189.605 251.621 189.781 251.023 189.781C250.438 189.781 249.998 189.605 249.705 189.254C249.412 188.902 249.266 188.463 249.266 187.936C249.266 187.408 249.412 186.963 249.705 186.6C249.998 186.236 250.438 186.055 251.023 186.055C251.609 186.055 252.049 186.242 252.342 186.617C252.646 186.98 252.799 187.42 252.799 187.936ZM260.34 209.346H269.516V212H256.789V209.609L265.508 195.67H256.859V192.98H269.164V195.283L260.34 209.346Z" fill="#C5D6DD"/>
<path d="M207.695 57.3203H199.047L197.061 64H193.756L202 38.4062H204.76L213.021 64H209.717L207.695 57.3203ZM199.891 54.543H206.869L203.371 42.9062L199.891 54.543ZM218.998 44.9805L219.086 47.0371C220.293 45.4316 221.834 44.6289 223.709 44.6289C227.072 44.6289 228.777 46.873 228.824 51.3613V64H225.73V51.502C225.73 50.0137 225.479 48.959 224.975 48.3379C224.482 47.7051 223.738 47.3887 222.742 47.3887C221.969 47.3887 221.271 47.6465 220.65 48.1621C220.041 48.6777 219.549 49.3516 219.174 50.1836V64H216.062V44.9805H218.998ZM247.686 58.5332L250.568 44.9805H253.645L248.986 64H246.508L242.799 50.3945L239.178 64H236.682L232.059 44.9805H235.117L238.07 58.1992L241.604 44.9805H244.064L247.686 58.5332ZM266.705 64C266.518 63.5898 266.383 62.8984 266.301 61.9258C265.199 63.543 263.793 64.3516 262.082 64.3516C260.359 64.3516 259.012 63.8711 258.039 62.9102C257.078 61.9375 256.598 60.5723 256.598 58.8145C256.598 56.8809 257.254 55.3457 258.566 54.209C259.879 53.0723 261.678 52.4922 263.963 52.4688H266.248V50.4473C266.248 49.3105 265.996 48.502 265.492 48.0215C264.988 47.541 264.221 47.3008 263.189 47.3008C262.252 47.3008 261.49 47.582 260.904 48.1445C260.318 48.6953 260.025 49.3984 260.025 50.2539H256.914C256.914 49.2812 257.201 48.3555 257.775 47.4766C258.35 46.5859 259.123 45.8887 260.096 45.3848C261.068 44.8809 262.152 44.6289 263.348 44.6289C265.293 44.6289 266.77 45.1152 267.777 46.0879C268.797 47.0488 269.318 48.4551 269.342 50.3066V59.9043C269.354 61.3691 269.553 62.6406 269.939 63.7188V64H266.705ZM262.557 61.5215C263.318 61.5215 264.045 61.3105 264.736 60.8887C265.428 60.4668 265.932 59.9395 266.248 59.3066V54.7715H264.49C263.014 54.7949 261.848 55.1289 260.992 55.7734C260.137 56.4062 259.709 57.2969 259.709 58.4453C259.709 59.5234 259.926 60.3086 260.359 60.8008C260.793 61.2812 261.525 61.5215 262.557 61.5215ZM277.533 64H274.422V37H277.533V64ZM286.516 40.375V44.9805H289.381V47.4941H286.516V59.2891C286.516 60.0391 286.639 60.6074 286.885 60.9941C287.131 61.3809 287.553 61.5742 288.15 61.5742C288.561 61.5742 288.977 61.5039 289.398 61.3633L289.363 64C288.66 64.2344 287.939 64.3516 287.201 64.3516C285.971 64.3516 285.033 63.9121 284.389 63.0332C283.744 62.1543 283.422 60.9121 283.422 59.3066V47.4941H280.521V44.9805H283.422V40.375H286.516Z" fill="#C5D6DD"/>
<path d="M245.477 138H242.242L231.994 118.277V138H228.76V112.406H231.994L242.277 132.217V112.406H245.477V138ZM249.959 127.611C249.959 124.846 250.627 122.66 251.963 121.055C253.311 119.438 255.086 118.629 257.289 118.629C259.492 118.629 261.262 119.414 262.598 120.984C263.945 122.555 264.637 124.693 264.672 127.4V129.404C264.672 132.158 264.004 134.338 262.668 135.943C261.332 137.549 259.551 138.352 257.324 138.352C255.121 138.352 253.352 137.572 252.016 136.014C250.691 134.455 250.006 132.346 249.959 129.686V127.611ZM253.07 129.404C253.07 131.361 253.451 132.902 254.213 134.027C254.986 135.141 256.023 135.697 257.324 135.697C260.066 135.697 261.479 133.717 261.561 129.756V127.611C261.561 125.666 261.174 124.131 260.4 123.006C259.627 121.869 258.59 121.301 257.289 121.301C256.012 121.301 254.986 121.869 254.213 123.006C253.451 124.131 253.07 125.66 253.07 127.594V129.404ZM272.758 114.375V118.98H275.623V121.494H272.758V133.289C272.758 134.039 272.881 134.607 273.127 134.994C273.373 135.381 273.795 135.574 274.393 135.574C274.803 135.574 275.219 135.504 275.641 135.363L275.605 138C274.902 138.234 274.182 138.352 273.443 138.352C272.213 138.352 271.275 137.912 270.631 137.033C269.986 136.154 269.664 134.912 269.664 133.307V121.494H266.764V118.98H269.664V114.375H272.758ZM289.123 138C288.936 137.59 288.801 136.898 288.719 135.926C287.617 137.543 286.211 138.352 284.5 138.352C282.777 138.352 281.43 137.871 280.457 136.91C279.496 135.938 279.016 134.572 279.016 132.814C279.016 130.881 279.672 129.346 280.984 128.209C282.297 127.072 284.096 126.492 286.381 126.469H288.666V124.447C288.666 123.311 288.414 122.502 287.91 122.021C287.406 121.541 286.639 121.301 285.607 121.301C284.67 121.301 283.908 121.582 283.322 122.145C282.736 122.695 282.443 123.398 282.443 124.254H279.332C279.332 123.281 279.619 122.355 280.193 121.477C280.768 120.586 281.541 119.889 282.514 119.385C283.486 118.881 284.57 118.629 285.766 118.629C287.711 118.629 289.188 119.115 290.195 120.088C291.215 121.049 291.736 122.455 291.76 124.307V133.904C291.771 135.369 291.971 136.641 292.357 137.719V138H289.123ZM284.975 135.521C285.736 135.521 286.463 135.311 287.154 134.889C287.846 134.467 288.35 133.939 288.666 133.307V128.771H286.908C285.432 128.795 284.266 129.129 283.41 129.773C282.555 130.406 282.127 131.297 282.127 132.445C282.127 133.523 282.344 134.309 282.777 134.801C283.211 135.281 283.943 135.521 284.975 135.521ZM304.451 121.898C304.018 121.816 303.549 121.775 303.045 121.775C301.451 121.775 300.338 122.648 299.705 124.395V138H296.594V118.98H299.617L299.67 120.914C300.502 119.391 301.68 118.629 303.203 118.629C303.695 118.629 304.105 118.711 304.434 118.875L304.451 121.898Z" fill="#C5D6DD"/>
<path fill-rule="evenodd" clip-rule="evenodd" d="M146.85 51.85H146.849C129.086 51.8715 112.057 58.9371 99.4972 71.4972C91.7407 79.2537 86.0796 88.7145 82.8789 99H84.9766C88.1131 89.2511 93.5358 80.287 100.911 72.9114C113.097 60.726 129.618 53.871 146.851 53.85C159.706 53.8501 172.273 57.6623 182.962 64.8044C193.651 71.9467 201.982 82.0984 206.902 93.9756C211.822 105.853 213.109 118.922 210.601 131.531C208.093 144.14 201.902 155.722 192.812 164.812C185.3 172.324 176.088 177.855 166 180.965V183.055C176.628 179.885 186.337 174.115 194.226 166.226C203.596 156.856 209.977 144.918 212.563 131.921C215.148 118.924 213.821 105.453 208.75 93.2102C203.679 80.9676 195.091 70.5035 184.073 63.1415C173.055 55.7794 160.101 51.85 146.85 51.85Z" fill="#C5D6DD"/>
<path fill-rule="evenodd" clip-rule="evenodd" d="M176.775 74.1061C167.922 68.193 157.515 65.038 146.87 65.04L146.869 65.04C132.602 65.0535 118.923 70.727 108.835 80.8152C103.601 86.0499 99.5545 92.2513 96.8711 99H99.03C101.611 92.7881 105.401 87.0781 110.249 82.2294C119.963 72.5159 133.134 67.0531 146.871 67.04C157.12 67.0382 167.14 70.0759 175.664 75.7692C184.187 81.4625 190.83 89.5556 194.754 99.0249C198.677 108.494 199.704 118.914 197.705 128.967C195.706 139.02 190.77 148.255 183.522 155.502C178.505 160.52 172.535 164.43 166 167.024V169.169C173.075 166.48 179.537 162.316 184.937 156.917C192.464 149.389 197.59 139.798 199.666 129.357C201.743 118.916 200.676 108.094 196.601 98.2593C192.527 88.4246 185.627 80.0191 176.775 74.1061Z" fill="#C5D6DD"/>
<path fill-rule="evenodd" clip-rule="evenodd" d="M146.87 75.6H146.869C135.402 75.6108 124.408 80.1709 116.299 88.2793C113.121 91.4578 110.487 95.0798 108.46 99H110.726C112.588 95.6131 114.932 92.4752 117.713 89.6935C125.447 81.9598 135.933 77.6104 146.87 77.6C155.029 77.6001 163.004 80.0194 169.787 84.5519C176.571 89.0845 181.858 95.5268 184.98 103.064C188.102 110.602 188.919 118.896 187.327 126.897C185.736 134.899 181.807 142.249 176.038 148.018C173.069 150.988 169.68 153.469 166 155.396V157.639C170.218 155.559 174.091 152.794 177.452 149.432C183.501 143.384 187.62 135.677 189.289 127.288C190.958 118.898 190.101 110.202 186.828 102.299C183.554 94.396 178.011 87.6413 170.898 82.8889C163.786 78.1366 155.424 75.6 146.87 75.6Z" fill="#C5D6DD"/>
<path fill-rule="evenodd" clip-rule="evenodd" d="M146.87 84.05H146.869C137.642 84.0582 128.796 87.7272 122.271 94.2515C120.799 95.7236 119.473 97.3138 118.301 99H120.773C121.663 97.8308 122.635 96.7163 123.686 95.6657C129.835 89.5161 138.174 86.0579 146.87 86.05C153.357 86.0501 159.699 87.9738 165.093 91.5778C170.487 95.1819 174.691 100.305 177.173 106.298C179.656 112.291 180.305 118.886 179.04 125.249C177.774 131.612 174.65 137.456 170.063 142.043C168.799 143.307 167.439 144.46 166 145.494V147.92C167.963 146.629 169.799 145.135 171.477 143.457C176.344 138.59 179.659 132.39 181.001 125.639C182.344 118.889 181.655 111.892 179.021 105.533C176.387 99.1738 171.927 93.7387 166.204 89.9149C160.481 86.091 153.753 84.05 146.87 84.05Z" fill="#C5D6DD"/>
<defs>
<clipPath id="clip0_1292_19577">
<rect width="171" height="119" fill="white" transform="translate(0 95)"/>
</clipPath>
</defs>
</svg>
